<svg width="30" height="30" viewBox="0 0 30 30" fill="none" xmlns="http://www.w3.org/2000/svg">
<g clip-path="url(#clip0)">
<path d="M22.9363 30H7.11618C6.02762 30 5.14185 29.1142 5.14185 28.0254V1.97456C5.14207 0.885773 6.02762 0 7.11618 0H22.9363C24.0248 0 24.9106 0.885773 24.9106 1.97456V28.0254C24.9106 29.1142 24.0248 30 22.9363 30ZM7.11618 1.17188C6.67375 1.17188 6.31395 1.53191 6.31395 1.97456V28.0254C6.31395 28.4681 6.67375 28.8281 7.11618 28.8281H22.9363C23.3787 28.8281 23.7387 28.4681 23.7387 28.0254V1.97456C23.7387 1.53191 23.3787 1.17188 22.9363 1.17188H7.11618Z" />
<path d="M15.0263 12.5068C12.4006 12.5068 10.2644 10.3702 10.2644 7.744C10.2644 5.11781 12.4006 2.9812 15.0263 2.9812C17.6518 2.9812 19.788 5.11781 19.788 7.744C19.788 10.3702 17.6518 12.5068 15.0263 12.5068ZM15.0263 4.15331C13.0467 4.15331 11.4363 5.76395 11.4363 7.744C11.4363 9.72406 13.0467 11.3349 15.0263 11.3349C17.0057 11.3349 18.6161 9.72406 18.6161 7.744C18.6161 5.76395 17.0057 4.15331 15.0263 4.15331Z" />
<path d="M15.0263 10.1773C13.6848 10.1773 12.5935 9.08575 12.5935 7.74405C12.5935 6.40257 13.6848 5.31104 15.0263 5.31104C16.3678 5.31104 17.4591 6.40257 17.4591 7.74405C17.4591 9.08575 16.3678 10.1773 15.0263 10.1773ZM15.0263 6.48291C14.331 6.48291 13.7654 7.04871 13.7654 7.74405C13.7654 8.43962 14.331 9.00542 15.0263 9.00542C15.7214 9.00542 16.2872 8.43962 16.2872 7.74405C16.2872 7.04871 15.7214 6.48291 15.0263 6.48291Z" />
<path d="M15.0263 27.0186C11.5182 27.0186 8.66409 24.164 8.66409 20.6552C8.66409 17.1465 11.5182 14.2916 15.0263 14.2916C15.862 14.2916 16.675 14.4521 17.4429 14.7686C17.7422 14.8918 17.8848 15.2342 17.7615 15.5335C17.6381 15.8327 17.2957 15.9753 16.9965 15.8519C16.371 15.5942 15.7082 15.4635 15.0263 15.4635C12.1644 15.4635 9.83597 17.7926 9.83597 20.6552C9.83597 23.5179 12.1644 25.847 15.0263 25.847C17.888 25.847 20.2164 23.5179 20.2164 20.6552C20.2164 19.8189 20.0121 18.9874 19.6252 18.2506C19.4749 17.964 19.5854 17.6097 19.8717 17.4594C20.1583 17.309 20.5124 17.4193 20.663 17.7059C21.1375 18.6099 21.3883 19.6298 21.3883 20.6552C21.3883 24.164 18.5344 27.0186 15.0263 27.0186Z" />
<path d="M15.0263 24.6893C12.8023 24.6893 10.9932 22.8795 10.9932 20.6553C10.9932 18.4308 12.8023 16.6212 15.0263 16.6212C17.2501 16.6212 19.0594 18.4308 19.0594 20.6553C19.0594 22.8795 17.2501 24.6893 15.0263 24.6893ZM15.0263 17.7931C13.4486 17.7931 12.1651 19.0769 12.1651 20.6553C12.1651 22.2334 13.4486 23.5174 15.0263 23.5174C16.604 23.5174 17.8876 22.2334 17.8876 20.6553C17.8876 19.0769 16.604 17.7931 15.0263 17.7931Z" />
<path d="M22.3043 3.38489H21.6639C21.3402 3.38489 21.0779 3.12259 21.0779 2.79895C21.0779 2.47531 21.3402 2.21301 21.6639 2.21301H22.3043C22.6279 2.21301 22.8902 2.47531 22.8902 2.79895C22.8902 3.12259 22.6279 3.38489 22.3043 3.38489Z" />
<path d="M8.38876 3.38489H7.74835C7.42471 3.38489 7.16241 3.12259 7.16241 2.79895C7.16241 2.47531 7.42471 2.21301 7.74835 2.21301H8.38876C8.7124 2.21301 8.9747 2.47531 8.9747 2.79895C8.9747 3.12259 8.7124 3.38489 8.38876 3.38489Z" />
<path d="M22.3043 27.787H21.6639C21.3402 27.787 21.0779 27.5247 21.0779 27.201C21.0779 26.8774 21.3402 26.6151 21.6639 26.6151H22.3043C22.6279 26.6151 22.8902 26.8774 22.8902 27.201C22.8902 27.5247 22.6279 27.787 22.3043 27.787Z" />
<path d="M8.38876 27.787H7.74835C7.42471 27.787 7.16241 27.5247 7.16241 27.201C7.16241 26.8774 7.42471 26.6151 7.74835 26.6151H8.38876C8.7124 26.6151 8.9747 26.8774 8.9747 27.201C8.9747 27.5247 8.7124 27.787 8.38876 27.787Z" />
<path d="M18.9684 16.9922C18.8143 16.9922 18.6633 16.9295 18.5541 16.8205C18.4451 16.7116 18.3824 16.5603 18.3824 16.4062C18.3824 16.2522 18.4451 16.1009 18.5541 15.992C18.6633 15.883 18.8143 15.8203 18.9684 15.8203C19.1226 15.8203 19.2737 15.883 19.3826 15.992C19.4916 16.1009 19.5543 16.2522 19.5543 16.4062C19.5543 16.5603 19.4916 16.7116 19.3826 16.8205C19.2737 16.9295 19.1226 16.9922 18.9684 16.9922Z" />
</g>
<defs>
<clipPath id="clip0">
<rect width="30" height="30" fill="white"/>
</clipPath>
</defs>
</svg>
